<svg id="Capa_2" data-name="Capa 2" xmlns="http://www.w3.org/2000/svg" viewBox="0 0 345.2 69.17"><defs><style>.cls-1,.cls-4{fill:#4d9d45;fill-rule:evenodd}.cls-4{fill:#8a8c8c}</style></defs><g id="Layer_1" data-name="Layer 1"><path class="cls-4" d="m158.03 34.37-17.23.13.04 5.6 3.38-.02s.44 2.85-2.73 2.88c-3.91.03-4.06-5.57-4.07-7.26-.02-2.96 1.85-7.1 4.49-7.12 2.75-.02 2.77 3.05 2.77 3.05l12.68-.09s-.74-14.79-16.8-13.62c-17.77 1.3-16.87 14.93-17.09 19.36-.09 1.91 2.75 14.72 16.5 14.62 8.56-.06 12.04-3.58 12.04-3.58l1.71 3.74 4.62-.12-.32-17.56ZM189.27 18.77c0 .07.02.14.02.22.02 2.17-2.04 3.95-4.58 3.96-2.25.02-4.13-1.35-4.54-3.17-.39 1.83-2.25 3.22-4.5 3.24-2.52.02-4.57-1.69-4.63-3.83a18.947 18.947 0 0 0-9.33 16.51c.08 10.48 8.58 16.54 18.97 16.46 10.39-.07 18.72-6.26 18.65-16.74a19.006 19.006 0 0 0-10.05-16.65Zm-9.38 25.61c-2.12.02-3.87-3.52-3.9-7.89-.03-4.37 1.66-7.93 3.79-7.94 2.12-.02 3.87 3.52 3.9 7.89.03 4.37-1.66 7.93-3.79 7.94Z"/><path class="cls-4" d="M178.05 16.77a4.16 4.16 0 0 0-2.43-.73c-1.88.02-3.41 1.17-3.66 2.64-.02.14-.05.29-.05.44.01 1.68 1.69 3.04 3.75 3.02 2.06-.01 3.72-1.39 3.71-3.08 0-.93-.52-1.74-1.32-2.29ZM188.31 18.32c-.39-1.35-1.87-2.36-3.65-2.35-.89.01-1.7.28-2.34.71-.84.56-1.38 1.41-1.38 2.37.01 1.68 1.7 3.04 3.76 3.03 2.06-.02 3.72-1.39 3.71-3.08 0-.24-.04-.46-.1-.68ZM206.6 30.31l-7.24.05.05-12.57 47.91.15.09 11.63-7.9.06.18 22.5-12.62.03-.06-22.37-7.02.05.13 22.31-13.14.02-.38-21.86zM279.44 18l-30.14.22.25 33.93 30.28.04-.08-12.1-15.8.11-.02-2.92 15.79-.12-.03-5.12-15.95.12-.02-1.9 15.8-.12-.08-12.14zM316.26 52.11c-.1-13.46-6.97-12.53-6.97-12.53 6.13-2.24 5.8-6.77 5.8-6.77s-.01-1.17-.05-7.61c-.05-6.44-9.39-7.44-9.39-7.44l-21.82-.08.23 34.48 12.92-.02.2-9.83c6.29-.05 5.48 9.91 5.48 9.91l13.61-.1Zm-16.5-16.41-2.78.02-.04-5.41s1.02 0 2.34-.02c1.32 0 1.91 1.3 1.92 3.06a2.514 2.514 0 0 1-1.44 2.35ZM317.61 17.73l.09 11.99 7.17-.06.11 22.49 13.12-.05-.21-22.83 7.31-.05-.08-11.5-27.51.01zM73.83 28.09l-21.11 6.1 1.99 6.82 4.14-1.2s1.53 3.33-2.35 4.45c-4.79 1.38-6.92-5.4-7.52-7.46-1.05-3.61-.19-9.3 3.05-10.24 3.37-.97 4.46 2.76 4.46 2.76l15.54-4.49S65.98 7.04 46.67 14.01C25.3 21.73 31.14 38.05 32.41 43.53c.55 2.36 8.12 17.2 24.96 12.33 10.49-3.03 13.72-9.27 13.72-9.27l3.82 3.36 5.18-1.5-6.27-20.38Z"/><path d="M21.44 20.73c6.69-5.06 19.9-10.34 32.33-12.5 24.53-4.27 46.24.91 49.17 15 1.45 6.94-2.16 14.25-9.16 20.48 12.22-7.5 19.21-17.1 17.37-25.95C108.13 3.19 82.32-3.82 53.53 2.1 38 5.29 24.94 12.34 16.36 19.02l5.08 1.71Z" style="fill:#ffce01;fill-rule:evenodd"/><path d="M90.01 48.44c-6.69 5.06-19.9 10.34-32.33 12.5-24.53 4.27-46.24-.91-49.17-15-1.45-6.94 2.16-14.25 9.16-20.48C5.44 32.95-1.55 42.55.29 51.4c3.03 14.57 28.84 21.58 57.63 15.66 15.53-3.19 28.58-10.24 37.17-16.92l-5.08-1.71Z" style="fill:#e12726;fill-rule:evenodd"/><path class="cls-1" d="M71.95 48.61c-1.49 2.11-3.25 4.1-5.34 5.9-11.54 9.92-27.72 10.12-36.13.45-7.04-8.09-6.4-20.52.75-30.17-10.95 11.58-13.39 27.41-5.11 36.93 9.03 10.38 27.4 9.31 41.01-2.38 2.97-2.55 5.46-5.39 7.46-8.39l-2.65-2.33ZM39.94 15.32c11.67-10.03 28.03-10.23 36.53-.46 5.99 6.88 6.48 16.87 2.18 25.69l.29.95c8.24-11.18 9.42-24.87 1.93-33.47-9.14-10.5-27.7-9.42-41.47 2.41-3.45 2.96-6.27 6.32-8.42 9.85l3.03 1.73c1.6-2.41 3.57-4.68 5.92-6.7Z"/></g></svg>