<?xml version="1.0" encoding="UTF-8"?>
<!DOCTYPE svg PUBLIC "-//W3C//DTD SVG 1.1//EN" "http://www.w3.org/Graphics/SVG/1.1/DTD/svg11.dtd">
<!-- Creator: CorelDRAW (Versión OEM) -->
<svg xmlns="http://www.w3.org/2000/svg" xml:space="preserve" width="435.689mm" height="92.5512mm" version="1.1" style="shape-rendering:geometricPrecision; text-rendering:geometricPrecision; image-rendering:optimizeQuality; fill-rule:evenodd; clip-rule:evenodd"
viewBox="0 0 27559.3 5854.28"
 xmlns:xlink="http://www.w3.org/1999/xlink"
 xmlns:xodm="http://www.corel.com/coreldraw/odm/2003">
 <defs>
  <style type="text/css">
   <![CDATA[
    .fil0 {fill:black;fill-rule:nonzero}
   ]]>
  </style>
 </defs>
 <g id="Capa_x0020_1">
  <metadata id="CorelCorpID_0Corel-Layer"/>
  <g id="_1651994667968">
   <path class="fil0" d="M3132.66 2658.01l2887.64 0 0 1107.59 -498.4 0.01 0 1922.47 -1115.45 0 -71.13 -561.66c-110.79,142.42 -316.48,379.74 -624.92,530.03 -340.25,166.19 -743.75,197.82 -1075.97,197.82 -696.22,0 -1321.15,-158.16 -1851.18,-680.32 -451.04,-443 -783.25,-1162.99 -783.25,-2112.26 0,-949.27 221.59,-1780.05 798.98,-2333.84 648.69,-624.92 1368.68,-727.85 1977.87,-727.85 466.77,0 1020.57,134.56 1447.84,506.26l39.5 -355.98 1139.23 -0.01 0 1851.18 -1526.83 -0.01c-15.73,-253.21 -126.53,-443 -253.21,-553.8 -205.68,-189.95 -490.53,-229.45 -704.09,-229.45 -324.34,0 -609.19,71.13 -846.51,308.45 -435.14,419.24 -435.14,1107.59 -435.14,1400.31 0,348.11 55.4,988.93 411.38,1368.68 268.95,284.85 593.3,332.21 886.01,332.21 261.08,0 569.53,-47.53 822.74,-284.85 142.42,-134.56 261.08,-348.11 308.61,-577.56l-933.54 0 0 -1107.59 -0.17 0.16z"/>
   <polygon class="fil0" points="9999.31,4422.17 10481.98,4422.17 10481.98,3401.6 8646.53,3401.6 8646.53,4422.17 9129.03,4422.17 9129.03,5687.91 6573.77,5687.91 6573.77,4422.17 7127.57,4422.17 7127.57,1415.86 6573.77,1415.86 6573.77,150.12 9129.03,150.11 9129.03,1415.86 8646.53,1415.86 8646.53,2199.11 10481.98,2199.11 10481.98,1415.86 9999.31,1415.86 9999.31,150.12 12554.57,150.11 12554.57,1415.86 12000.77,1415.86 12000.77,4422.17 12554.57,4422.17 12554.57,5687.91 9999.31,5687.91 "/>
   <path class="fil0" d="M15511.17 3110.39c-14.9,125.19 -69.12,244.68 -151.29,326.85 -121.33,121.33 -265.26,138.24 -394.13,138.24 -128.87,0 -291.38,-22.42 -425.93,-162.51 -132.55,-138.24 -181.25,-345.6 -181.25,-532.38 0,-186.78 41,-392.29 183.09,-532.38 85.86,-84.01 216.74,-158.83 418.4,-158.83 138.24,0 306.27,37.32 409.03,138.24 65.44,63.43 119.49,170.04 127.03,293.22l-140.09 0c-7.53,-87.87 -46.69,-160.67 -93.39,-209.2 -52.22,-54.23 -141.92,-104.6 -291.38,-104.6 -104.6,0 -214.89,20.58 -311.96,113.97 -104.6,100.92 -153.13,255.9 -153.13,438.99 0,171.88 43.01,366.19 160.67,479.99 57.91,57.91 156.98,117.65 308.28,117.65 141.92,0 231.63,-56.07 282,-102.76 37.32,-35.48 104.6,-113.97 113.97,-244.68l140.08 -0.01 0 0.16z"/>
   <path class="fil0" d="M15795.18 2228.73l554.8 0c143.76,0 257.74,11.22 343.76,100.92 43.01,44.85 89.71,121.33 89.71,242.84 0,84.01 -18.74,162.51 -78.49,231.63 -50.38,56.07 -106.44,82.17 -149.45,93.39l0 3.68c61.59,14.9 99.08,48.54 113.97,63.43 70.96,69.12 70.96,158.83 72.8,242.84l3.68 147.61c1.84,44.85 1.84,108.29 50.38,181.25l-149.45 0.01c-13.06,-20.58 -39.16,-65.44 -43.01,-170.04l-5.52 -138.24c-3.68,-89.71 -1.84,-160.67 -65.44,-214.72 -57.91,-48.54 -138.24,-52.38 -186.78,-52.38l-412.87 0 0 575.22 -138.24 0 0 -1307.59 0.17 0.17zm138.07 614.55l403.51 0c85.86,0 175.56,-22.42 225.94,-69.12 43.01,-41.17 72.8,-113.97 72.8,-194.31 0,-91.55 -33.64,-145.77 -67.28,-173.72 -67.28,-59.75 -177.4,-59.75 -239.16,-59.75l-395.98 0 0 496.9 0.17 0z"/>
   <path class="fil0" d="M17093.23 3536.32l-149.46 0 496.9 -1307.59 154.98 0 496.9 1307.59 -151.3 0 -138.24 -375.39 -569.7 0 -140.08 375.39 0.01 0zm668.77 -493.21l-244.68 -681.83 -244.68 681.83 489.36 0z"/>
   <polygon class="fil0" points="18426.93,3536.32 18288.69,3536.32 18288.69,2228.73 18447.51,2228.73 19181.56,3328.96 19181.56,2228.73 19319.8,2228.73 19319.8,3536.32 19162.98,3536.32 18427.1,2436.09 18427.1,3536.32 "/>
   <polygon class="fil0" points="20500.36,2800.27 20500.36,2917.92 19801.8,2917.92 19801.8,3418.5 20588.23,3418.5 20588.23,3536.15 19663.56,3536.15 19663.56,2228.56 20565.8,2228.56 20565.8,2346.22 19801.8,2346.22 19801.8,2800.11 20500.36,2800.11 "/>
   <path class="fil0" d="M20890.82 3123.44c-1.84,108.29 46.69,184.93 85.86,224.1 74.64,76.65 199.83,106.44 304.43,106.44 104.6,0 214.72,-27.95 276.48,-87.87 43.01,-41 72.8,-104.6 72.8,-175.56 0,-61.59 -26.11,-119.49 -57.91,-154.97 -61.59,-65.44 -196.15,-95.23 -250.37,-104.6l-130.71 -24.26c-110.29,-20.58 -246.52,-50.38 -328.7,-140.08 -37.32,-41 -76.65,-106.44 -76.65,-207.36 0,-136.4 67.28,-235.31 156.98,-293.22 115.81,-74.64 274.64,-78.49 326.85,-78.49 190.46,0 298.91,63.43 356.81,119.49 16.74,16.74 100.92,102.76 113.97,255.9l-138.24 -0.01c-7.53,-76.65 -43.01,-141.92 -85.86,-181.25 -61.59,-56.07 -162.51,-76.65 -257.74,-76.65 -27.95,0 -141.92,3.68 -218.58,50.38 -69.12,43.01 -108.29,115.81 -108.29,194.31 0,65.44 27.95,106.44 50.38,130.71 52.38,54.23 141.92,78.49 231.63,95.23l123.35 24.26c141.92,27.95 265.26,61.59 343.76,136.4 48.54,46.69 95.23,121.33 95.23,241 0,119.66 -43.01,218.58 -112.13,282 -108.29,99.08 -270.79,112.13 -369.87,112.13 -134.56,0 -302.59,-16.74 -422.08,-136.4 -56.07,-56.07 -121.33,-162.51 -121.33,-311.96l140.09 0 -0.16 0.34z"/>
   <path class="fil0" d="M23408.59 2964.62c-3.68,57.91 -14.9,110.29 -29.96,156.81 -16.74,54.23 -41,106.44 -65.44,149.45l224.1 265.26 -158.83 0.01 -136.4 -162.51c-13.06,18.74 -70.96,97.07 -162.51,147.61 -74.64,41.17 -156.81,54.23 -239.16,54.23 -100.92,0 -216.74,-16.74 -311.96,-110.13 -70.96,-70.96 -106.44,-162.51 -106.44,-274.64 0,-112.13 37.32,-201.67 112.13,-276.48 57.91,-57.91 149.45,-106.44 216.74,-132.55 -27.95,-31.8 -57.91,-69.12 -84.01,-113.97 -33.64,-57.91 -52.38,-108.29 -52.38,-175.56 0,-80.33 29.96,-138.24 69.12,-181.25 65.44,-69.12 147.61,-82.17 211.04,-82.17 112.13,0 175.56,39.16 207.36,70.96 48.54,46.69 72.8,119.49 72.8,188.62 0,91.55 -33.64,156.81 -93.39,214.72 -61.59,61.59 -130.71,95.23 -154.97,106.44l308.28 368.03c14.9,-29.96 29.96,-69.12 37.32,-100.92 9.37,-35.48 14.9,-82.17 16.9,-112.13l119.5 -0.01 0.17 0.16zm-588.27 -98.91c-65.44,24.26 -136.4,69.12 -175.56,108.29 -54.23,54.23 -85.86,128.87 -85.86,209.2 0,80.33 33.64,156.81 80.33,203.68 65.44,65.44 147.61,74.64 211.04,74.64 59.75,0 136.4,-11.22 205.52,-54.23 41,-26.11 82.17,-65.44 113.97,-119.49l-349.28 -422.08 -0.16 0zm168.03 -218.57c39.16,-39.16 63.6,-87.87 63.6,-153.13 0,-46.69 -13.06,-87.87 -44.85,-119.49 -29.96,-29.96 -69.12,-41 -110.29,-41 -35.48,0 -78.49,7.53 -112.13,41 -22.42,22.42 -43.01,57.91 -43.01,112.13 0,54.22 18.74,98.91 44.85,140.08 5.52,7.53 18.74,27.95 74.64,102.76 44.85,-18.74 95.23,-50.38 127.03,-82.17l0.17 -0.17z"/>
   <path class="fil0" d="M15511.17 5252.94c-14.9,125.19 -69.12,244.68 -151.29,326.85 -121.33,121.33 -265.26,138.24 -394.13,138.24 -128.87,0 -291.38,-22.42 -425.93,-162.51 -132.55,-138.24 -181.25,-345.6 -181.25,-532.38 0,-186.78 41,-392.29 183.09,-532.38 85.86,-84.01 216.74,-158.83 418.4,-158.83 138.24,0 306.27,37.32 409.03,138.24 65.44,63.43 119.49,170.04 127.03,293.22l-140.09 -0.01c-7.53,-87.87 -46.69,-160.67 -93.39,-209.2 -52.22,-54.23 -141.92,-104.6 -291.38,-104.6 -104.6,0 -214.89,20.58 -311.96,113.97 -104.6,100.92 -153.13,255.9 -153.13,438.99 0,171.88 43.01,366.19 160.67,479.99 57.91,57.91 156.98,117.65 308.28,117.65 141.92,0 231.63,-56.07 282,-102.76 37.32,-35.48 104.6,-113.97 113.97,-244.68l140.08 -0.01 0 0.17z"/>
   <path class="fil0" d="M15937.1 4487.1c65.44,-65.44 196.15,-154.97 418.4,-154.97 209.2,0 343.76,76.65 422.08,149.45 89.71,84.01 197.99,246.52 197.99,543.59 0,297.07 -104.6,459.4 -194.31,545.43 -127.03,125.19 -287.69,147.61 -416.56,147.61 -222.26,0 -352.97,-74.64 -431.46,-151.29 -37.32,-37.32 -186.78,-199.83 -186.78,-541.75 0,-259.58 91.55,-438.99 190.46,-537.9l0.17 -0.17zm100.92 990.1c63.43,65.44 173.72,123.35 325.01,123.35 158.83,0 257.74,-63.43 319.33,-125.19 85.86,-87.87 147.61,-229.78 147.61,-446.35 0,-248.36 -82.17,-395.97 -168.03,-474.47 -93.39,-85.86 -203.68,-104.6 -298.91,-104.6 -158.83,0 -252.21,59.75 -304.43,106.44 -87.87,80.33 -166.19,235.31 -166.19,476.31 0,192.46 54.23,351.13 145.77,444.51l-0.16 -0.01z"/>
   <polygon class="fil0" points="17427.62,4543.16 17423.93,4543.16 17427.62,4593.54 17427.62,5678.71 17289.38,5678.71 17289.38,4371.12 17498.58,4371.12 17937.57,5497.46 18378.39,4371.12 18585.76,4371.12 18585.76,5678.71 18447.51,5678.71 18447.51,4593.54 18451.19,4543.16 18445.51,4543.16 17997.15,5678.87 17877.65,5678.87 17427.45,4543.16 "/>
   <path class="fil0" d="M19456.2 4371.28c95.23,0 235.31,3.68 336.23,100.92 48.54,46.69 98.91,127.03 98.91,267.11 0,140.08 -48.54,229.78 -97.07,280.16 -106.44,110.29 -257.74,113.97 -356.81,113.97l-351.13 0.01 0 545.43 -138.24 -0.01 0 -1307.59 508.11 0zm-369.87 644.51l341.92 0c76.65,0 175.56,-5.52 246.52,-70.96 39.16,-35.48 74.81,-97.07 74.81,-197.99 0,-95.23 -37.32,-153.13 -69.12,-184.93 -70.96,-67.28 -181.25,-72.8 -252.21,-72.8l-341.92 -0.01 0 526.68z"/>
   <path class="fil0" d="M20279.95 4487.1c65.44,-65.44 196.15,-154.97 418.4,-154.97 209.2,0 343.76,76.65 422.08,149.45 89.71,84.01 197.99,246.52 197.99,543.59 0,297.07 -104.6,459.4 -194.31,545.43 -127.03,125.19 -287.69,147.61 -416.56,147.61 -222.26,0 -352.97,-74.64 -431.46,-151.29 -37.32,-37.32 -186.78,-199.83 -186.78,-541.75 0,-259.58 91.55,-438.99 190.46,-537.9l0.17 -0.17zm100.92 990.1c63.43,65.44 173.72,123.35 325.01,123.35 158.83,0 257.74,-63.43 319.33,-125.19 85.86,-87.87 147.61,-229.78 147.61,-446.35 0,-248.36 -82.17,-395.97 -168.03,-474.47 -93.39,-85.86 -203.68,-104.6 -298.91,-104.6 -158.83,0 -252.21,59.75 -304.43,106.44 -87.87,80.33 -166.19,235.31 -166.19,476.31 0,192.46 54.23,351.13 145.77,444.51l-0.16 -0.01z"/>
   <polygon class="fil0" points="21752.05,5678.87 21613.82,5678.87 21613.82,4371.28 21772.64,4371.28 22506.69,5471.51 22506.69,4371.28 22644.92,4371.28 22644.92,5678.87 22488.11,5678.87 21752.22,4578.64 21752.22,5678.87 "/>
   <polygon class="fil0" points="23844.06,4942.99 23844.06,5060.64 23145.5,5060.64 23145.5,5561.22 23931.93,5561.22 23931.93,5678.87 23007.26,5678.87 23007.26,4371.28 23909.51,4371.28 23909.51,4488.94 23145.5,4488.94 23145.5,4942.83 23844.06,4942.83 "/>
   <polygon class="fil0" points="24305.48,5678.87 24167.24,5678.87 24167.24,4371.28 24326.06,4371.28 25060.1,5471.51 25060.1,4371.28 25198.35,4371.28 25198.35,5678.87 25041.53,5678.87 24305.65,4578.64 24305.65,5678.87 "/>
   <polygon class="fil0" points="25400.02,4489.11 25400.02,4371.45 26405.02,4371.45 26405.02,4489.11 25971.72,4489.11 25971.72,5678.87 25833.49,5678.87 25833.49,4489.11 25400.19,4489.11 "/>
   <path class="fil0" d="M26673.97 5266c-1.84,108.29 46.69,184.93 85.86,224.1 74.64,76.65 199.83,106.44 304.43,106.44 104.6,0 214.72,-27.95 276.48,-87.87 43.01,-41 72.8,-104.6 72.8,-175.56 0,-61.59 -26.11,-119.49 -57.91,-154.97 -61.59,-65.44 -196.15,-95.23 -250.37,-104.6l-130.71 -24.26c-110.29,-20.58 -246.52,-50.38 -328.7,-140.08 -37.32,-41 -76.65,-106.44 -76.65,-207.36 0,-136.4 67.28,-235.31 156.81,-293.22 115.81,-74.64 274.64,-78.49 326.85,-78.49 190.46,0 298.91,63.43 356.81,119.49 16.74,16.74 100.92,102.76 113.97,255.9l-138.22 -0.01c-7.53,-76.65 -43.01,-141.92 -85.86,-181.25 -61.59,-56.07 -162.51,-76.65 -257.74,-76.65 -27.95,0 -141.92,3.68 -218.58,50.38 -69.12,43.01 -108.29,115.81 -108.29,194.31 0,65.44 27.95,106.44 50.38,130.71 52.38,54.23 141.92,78.49 231.63,95.23l123.35 24.26c141.92,27.95 265.26,61.59 343.76,136.4 48.54,46.69 95.23,121.33 95.23,241 0,119.66 -43.01,218.58 -112.13,282 -108.29,99.08 -270.79,112.13 -369.87,112.13 -134.56,0 -302.59,-16.74 -422.08,-136.4 -56.07,-56.07 -121.33,-162.51 -121.33,-311.96l140.08 0 0 0.34z"/>
  </g>
 </g>
</svg>
